<svg clip-rule="evenodd" fill-rule="evenodd" stroke-linejoin="round" stroke-miterlimit="2" viewBox="0 0 51 100" xmlns="http://www.w3.org/2000/svg"><path d="m483 659.543c0 .386.154.757.427 1.03s.644.427 1.03.427h4.16c1.316 0 2.383 1.067 2.383 2.383v4.6h-6.543c-.386 0-.757.153-1.03.427-.273.273-.427.644-.427 1.03v16.206c0 1.155-.459 2.262-1.275 3.079-.817.816-1.924 1.275-3.079 1.275-2.696 0-5.646 0-5.646 0s0-15.647 0-20.56c0-.386-.154-.757-.427-1.03-.273-.274-.644-.427-1.03-.427h-1.16c-1.316 0-2.383-1.067-2.383-2.383 0-2.023 0-4.6 0-4.6h3.543c.805 0 1.457-.652 1.457-1.457 0-2.14 0-5.882 0-5.882 0-2.297.913-4.5 2.537-6.124s3.827-2.537 6.124-2.537h9.339v9h-5.937c-.547 0-1.072.217-1.459.604s-.604.912-.604 1.459z" fill="#3b5998" transform="matrix(2.20702 0 0 2.20702 -1032.8824 -1423.524536)"/></svg>