<?xml version="1.0" encoding="UTF-8" standalone="no"?>
<!DOCTYPE svg PUBLIC "-//W3C//DTD SVG 1.1//EN" "http://www.w3.org/Graphics/SVG/1.1/DTD/svg11.dtd">
<svg width="100%" height="100%" viewBox="0 0 98 100" version="1.1" xmlns="http://www.w3.org/2000/svg" xmlns:xlink="http://www.w3.org/1999/xlink" xml:space="preserve" xmlns:serif="http://www.serif.com/" style="fill-rule:evenodd;clip-rule:evenodd;stroke-linejoin:round;stroke-miterlimit:2;">
    <g transform="matrix(1,0,0,1,-1.20636,-0.282892)">
        <g transform="matrix(0.729339,0,0,0.729339,-137.606,-725.758)">
            <path d="M235.254,1048.56C235.254,1043.1 239.679,1038.68 245.138,1038.68C249.276,1038.68 254.034,1038.68 257.994,1038.68C262.613,1038.68 266.358,1042.42 266.358,1047.04C266.358,1047.04 266.358,1047.04 266.358,1047.05C266.359,1047.31 266.514,1047.54 266.753,1047.65C266.993,1047.75 267.272,1047.7 267.464,1047.53C273.585,1042.03 281.68,1038.68 290.55,1038.68C296.035,1038.68 301.223,1039.96 305.831,1042.24C316.636,1047.5 323.487,1058.47 323.478,1070.49C323.509,1084.65 323.486,1114.68 323.478,1126.78C323.475,1129.66 321.14,1131.99 318.26,1131.99C316.336,1131.99 314.051,1131.99 311.711,1131.99C303.841,1131.99 297.462,1125.61 297.462,1117.74C297.462,1104.55 297.462,1085.24 297.462,1073.49C297.462,1067.81 292.855,1063.2 287.172,1063.2C283.789,1063.2 280.03,1063.2 276.647,1063.2C270.965,1063.2 266.358,1067.81 266.358,1073.49C266.358,1088.39 266.358,1115.44 266.358,1126.77C266.358,1129.65 264.022,1131.99 261.14,1131.99C257.934,1131.99 253.656,1131.99 249.503,1131.99C245.724,1131.99 242.1,1130.49 239.427,1127.82C236.755,1125.14 235.254,1121.52 235.254,1117.74C235.254,1098.62 235.254,1065.14 235.254,1048.56ZM221.43,1052.34C221.43,1048.71 219.991,1045.24 217.429,1042.68C214.868,1040.12 211.394,1038.68 207.772,1038.68C203.437,1038.68 198.902,1038.68 195.543,1038.68C192.661,1038.68 190.326,1041.01 190.326,1043.89C190.326,1058.02 190.326,1097.32 190.326,1118.33C190.326,1121.95 191.765,1125.43 194.326,1127.99C196.887,1130.55 200.361,1131.99 203.984,1131.99C208.319,1131.99 212.853,1131.99 216.212,1131.99C219.094,1131.99 221.43,1129.65 221.43,1126.77C221.43,1112.65 221.43,1073.35 221.43,1052.34ZM205.878,995.478C214.461,995.478 221.43,1002.45 221.43,1011.03C221.43,1019.61 214.461,1026.58 205.878,1026.58C197.294,1026.58 190.326,1019.61 190.326,1011.03C190.326,1002.45 197.294,995.478 205.878,995.478Z" style="fill:#007bb5;"/>
        </g>
    </g>
</svg>
