<svg clip-rule="evenodd" fill-rule="evenodd" stroke-linejoin="round" stroke-miterlimit="2" viewBox="0 0 98 100" xmlns="http://www.w3.org/2000/svg"><path d="m235.254 1048.56c0-5.46 4.425-9.88 9.884-9.88h12.856c4.619 0 8.364 3.74 8.364 8.36v.01c.001.26.156.49.395.6.24.1.519.05.711-.12 6.121-5.5 14.216-8.85 23.086-8.85 5.485 0 10.673 1.28 15.281 3.56 10.805 5.26 17.656 16.23 17.647 28.25.031 14.16.008 44.19 0 56.29-.003 2.88-2.338 5.21-5.218 5.21-1.924 0-4.209 0-6.549 0-7.87 0-14.249-6.38-14.249-14.25 0-13.19 0-32.5 0-44.25 0-5.68-4.607-10.29-10.29-10.29-3.383 0-7.142 0-10.525 0-5.682 0-10.289 4.61-10.289 10.29v53.28c0 2.88-2.336 5.22-5.218 5.22-3.206 0-7.484 0-11.637 0-3.779 0-7.403-1.5-10.076-4.17-2.672-2.68-4.173-6.3-4.173-10.08 0-19.12 0-52.6 0-69.18zm-13.824 3.78c0-3.63-1.439-7.1-4.001-9.66-2.561-2.56-6.035-4-9.657-4-4.335 0-8.87 0-12.229 0-2.882 0-5.217 2.33-5.217 5.21v74.44c0 3.62 1.439 7.1 4 9.66s6.035 4 9.658 4h12.228c2.882 0 5.218-2.34 5.218-5.22 0-14.12 0-53.42 0-74.43zm-15.552-56.862c8.583 0 15.552 6.972 15.552 15.552s-6.969 15.55-15.552 15.55c-8.584 0-15.552-6.97-15.552-15.55s6.968-15.552 15.552-15.552z" fill="#007bb5" transform="matrix(.729339 0 0 .729339 -138.81236 -726.040892)"/></svg>