<svg clip-rule="evenodd" fill="#fff" fill-rule="evenodd" stroke-linejoin="round" stroke-miterlimit="2" viewBox="0 0 100 100" xmlns="http://www.w3.org/2000/svg"><path d="m435 1114.17 8.484-8.48c.782-.78 2.043-.79 2.83 0 .781.78.785 2.04-.002 2.83l-8.484 8.48 8.484 8.48c.782.79.788 2.05.002 2.83-.781.79-2.043.79-2.83 0l-8.484-8.48-8.484 8.48c-.782.78-2.043.79-2.83 0-.781-.78-.785-2.04.002-2.83l8.484-8.48-8.484-8.48c-.782-.79-.788-2.05-.002-2.83.781-.79 2.043-.79 2.83 0z" transform="matrix(2.20052 0 0 2.20052 -907.534 -2407.96)"/></svg>