<?xml version="1.0" encoding="UTF-8" standalone="no"?>
<!DOCTYPE svg PUBLIC "-//W3C//DTD SVG 1.1//EN" "http://www.w3.org/Graphics/SVG/1.1/DTD/svg11.dtd">
<svg width="100%" height="100%" viewBox="0 0 100 100" version="1.1" xmlns="http://www.w3.org/2000/svg" xmlns:xlink="http://www.w3.org/1999/xlink" xml:space="preserve" xmlns:serif="http://www.serif.com/" style="fill-rule:evenodd;clip-rule:evenodd;stroke-linejoin:round;stroke-miterlimit:2;">
    <g transform="matrix(1,0,0,1,-0.248901,-0.403195)">
        <g id="Phone" transform="matrix(2.25377,8.34261e-32,2.77798e-32,2.25611,-215.001,-634.466)">
            <path d="M103.3,283.4C103.6,283.4 103.9,283.5 104.1,283.6C104.9,283.9 109.7,288.2 110.6,293.7C110.6,293.7 110.1,296 107.8,299.2C107.8,299.2 108.3,301.5 113.8,307C119.4,312.5 121.7,313 121.7,313C124.9,310.7 127.3,310.2 127.3,310.2C132.9,311.1 137.2,315.9 137.5,316.7C138.6,319.2 134.3,322.7 134.3,322.7C133.3,323.1 132.2,323.3 131,323.3C122.1,323.3 110.3,311.8 109.7,311.2C109.4,310.9 94.3,295.7 98.1,286.8C98.1,286.8 101,283.4 103.3,283.4M109.7,311.2M109.7,311.2M103.3,281.4C100.2,281.4 97.1,284.8 96.6,285.5L96.4,285.7L96.3,286C92,295.9 106.5,310.8 108.3,312.6C109.7,314 121.5,325.3 131,325.3C132.5,325.3 133.8,325 135,324.5L135.3,324.4L135.5,324.2C136.4,323.5 140.9,319.5 139.3,315.9C138.7,314.5 133.8,309.3 127.6,308.3L127.2,308.2L126.8,308.3C126.5,308.4 124.4,308.8 121.4,310.8C120.4,310.3 118.4,308.9 115.1,305.7C111.9,302.5 110.5,300.5 110,299.5C111.9,296.5 112.4,294.4 112.5,294.2L112.6,293.8L112.5,293.4C111.5,287.2 106.2,282.4 104.8,281.7C104.4,281.5 103.9,281.4 103.3,281.4Z" style="fill-rule:nonzero;"/>
        </g>
    </g>
</svg>
