<?xml version="1.0" encoding="UTF-8" standalone="no"?>
<!DOCTYPE svg PUBLIC "-//W3C//DTD SVG 1.1//EN" "http://www.w3.org/Graphics/SVG/1.1/DTD/svg11.dtd">
<svg width="100%" height="100%" viewBox="0 0 100 88" version="1.1" xmlns="http://www.w3.org/2000/svg" xmlns:xlink="http://www.w3.org/1999/xlink" xml:space="preserve" xmlns:serif="http://www.serif.com/" style="fill-rule:evenodd;clip-rule:evenodd;stroke-linejoin:round;stroke-miterlimit:2;">
    <g transform="matrix(1,0,0,1,0.00947188,-6.77628)">
        <g id="Twitter" transform="matrix(2.37279,0,0,2.37279,-1481.12,-1533.16)">
            <path d="M659.683,651.974C661.676,651.825 663.49,651.024 664.911,649.785C665.068,649.64 665.302,649.614 665.487,649.723C665.672,649.831 665.765,650.047 665.716,650.256C665.228,652.137 664.148,653.781 662.686,654.974C663.692,654.898 664.651,654.657 665.537,654.277C665.72,654.196 665.934,654.233 666.079,654.371C666.224,654.51 666.27,654.722 666.196,654.909C665.368,656.74 663.795,658.051 662.794,658.688C662.281,658.999 661.976,659.563 661.995,660.163C661.995,660.441 662,660.72 662,661C662,674.798 650.798,686 637,686C633.709,686 630.565,685.363 627.686,684.205C627.207,684.003 626.91,683.518 626.948,683C626.986,682.481 627.351,682.045 627.855,681.916C630.185,681.333 632.33,680.172 634.088,678.562C631.31,677.613 628.978,675.865 627.299,673.639C626.957,673.163 627.005,672.511 627.412,672.091C627.82,671.67 628.47,671.601 628.956,671.927C629.64,672.361 630.361,672.751 631.118,673.083C628.183,671.564 625.9,669.188 624.469,666.385C624.218,665.855 624.381,665.222 624.856,664.879C625.331,664.536 625.984,664.581 626.407,664.986C627.741,666.206 629.289,667.237 631.037,667.981C625.985,664.873 623.199,658.803 624.545,652.686C624.545,652.685 624.545,652.685 624.545,652.684C624.621,652.343 624.879,652.072 625.215,651.978C625.552,651.885 625.913,651.986 626.153,652.24C628.537,654.702 631.434,656.703 634.724,658.059L634.724,658.059C635.128,658.225 635.537,658.382 635.953,658.529L636.022,658.553L636.087,658.576C636.173,658.606 636.259,658.635 636.346,658.664L636.421,658.689L636.485,658.71L636.548,658.731L636.615,658.752L636.688,658.776L636.757,658.798L636.822,658.818L636.886,658.838L636.95,658.858L637.016,658.878L637.079,658.897L637.142,658.916L637.206,658.936L637.29,658.96L637.354,658.979L637.427,659L637.482,659.016L637.546,659.034L637.611,659.052L637.697,659.076L637.761,659.093L637.825,659.111L637.889,659.128L637.954,659.145L638.019,659.162L638.107,659.185L638.171,659.201L638.235,659.217L638.3,659.234L638.365,659.25L638.43,659.266L638.519,659.287L638.584,659.303L638.649,659.318L638.714,659.333L638.779,659.348L638.845,659.363L638.935,659.383L639,659.398L639.1,659.419L639.182,659.437L639.198,659.44L639.281,659.458L639.38,659.478L639.465,659.496L639.48,659.499L639.562,659.515L639.577,659.518L639.668,659.535L639.761,659.553L639.844,659.569L639.859,659.572L639.942,659.587L640.041,659.605L640.141,659.622L640.223,659.636L640.239,659.639L640.321,659.653L640.421,659.669L640.505,659.683L640.52,659.685L640.602,659.698L640.617,659.7L640.708,659.714L640.801,659.728L640.884,659.74L640.899,659.742L640.981,659.754L641.081,659.767L641.18,659.781L641.262,659.791L641.278,659.793L641.36,659.804L641.46,659.816L641.544,659.826L641.559,659.828L641.64,659.837L641.656,659.839L641.746,659.849L641.839,659.859L641.921,659.867L641.937,659.869L642.019,659.877L642.118,659.887L642.217,659.896L642.298,659.903L642.314,659.905L642.396,659.912L642.496,659.92L642.579,659.926L642.595,659.927L642.675,659.933L642.691,659.934L642.781,659.941L642.874,659.947L642.955,659.952L642.971,659.953L643.052,659.958L643.152,659.963L643.25,659.968L643.331,659.972L643.348,659.973L643.429,659.977L643.528,659.981L643.61,659.984L643.627,659.984L643.706,659.987L643.723,659.988L643.813,659.99L643.904,659.993L643.985,659.994L644.002,659.995L644.081,659.996L644.183,659.998L644.223,659.998C644.077,659.355 644,658.687 644,658C644,653.033 648.033,649 653,649C655.651,649 658.035,650.148 659.683,651.974Z" style="fill:#55ACEE;"/>
        </g>
    </g>
</svg>
