<svg clip-rule="evenodd" fill-rule="evenodd" stroke-linejoin="round" stroke-miterlimit="2" viewBox="0 0 100 88" xmlns="http://www.w3.org/2000/svg"><path d="m659.683 651.974c1.993-.149 3.807-.95 5.228-2.189.157-.145.391-.171.576-.062.185.108.278.324.229.533-.488 1.881-1.568 3.525-3.03 4.718 1.006-.076 1.965-.317 2.851-.697.183-.081.397-.044.542.094.145.139.191.351.117.538-.828 1.831-2.401 3.142-3.402 3.779-.513.311-.818.875-.799 1.475 0 .278.005.557.005.837 0 13.798-11.202 25-25 25-3.291 0-6.435-.637-9.314-1.795-.479-.202-.776-.687-.738-1.205.038-.519.403-.955.907-1.084 2.33-.583 4.475-1.744 6.233-3.354-2.778-.949-5.11-2.697-6.789-4.923-.342-.476-.294-1.128.113-1.548.408-.421 1.058-.49 1.544-.164.684.434 1.405.824 2.162 1.156-2.935-1.519-5.218-3.895-6.649-6.698-.251-.53-.088-1.163.387-1.506s1.128-.298 1.551.107c1.334 1.22 2.882 2.251 4.63 2.995-5.052-3.108-7.838-9.178-6.492-15.295 0-.001 0-.001 0-.002.076-.341.334-.612.67-.706.337-.093.698.008.938.262 2.384 2.462 5.281 4.463 8.571 5.819.404.166.813.323 1.229.47l.069.024.065.023c.086.03.172.059.259.088l.075.025.064.021.063.021.067.021.073.024.069.022.065.02.064.02.064.02.066.02.063.019.063.019.064.02.084.024.064.019.073.021.055.016.064.018.065.018.086.024.064.017.064.018.064.017.065.017.065.017.088.023.064.016.064.016.065.017.065.016.065.016.089.021.065.016.065.015.065.015.065.015.066.015.09.02.065.015.1.021.082.018.016.003.083.018.099.02.085.018.015.003.082.016.015.003.091.017.093.018.083.016.015.003.083.015.099.018.1.017.082.014.016.003.082.014.1.016.084.014.015.002.082.013.015.002.091.014.093.014.083.012.015.002.082.012.1.013.099.014.082.01.016.002.082.011.1.012.084.01.015.002.081.009.016.002.09.01.093.01.082.008.016.002.082.008.099.01.099.009.081.007.016.002.082.007.1.008.083.006.016.001.08.006.016.001.09.007.093.006.081.005.016.001.081.005.1.005.098.005.081.004.017.001.081.004.099.004.082.003h.017l.079.003.017.001.09.002.091.003.081.001.017.001.079.001.102.002h.04c-.146-.643-.223-1.311-.223-1.998 0-4.967 4.033-9 9-9 2.651 0 5.035 1.148 6.683 2.974z" fill="#55acee" transform="matrix(2.37279 0 0 2.37279 -1481.110528 -1539.93628)"/></svg>