<svg clip-rule="evenodd" fill-rule="evenodd" stroke-linejoin="round" stroke-miterlimit="2" viewBox="0 0 100 100" xmlns="http://www.w3.org/2000/svg"><path d="m355.884 109.222c.156-2.253.979-4.369 2.391-6.145.912.394 1.884.729 2.898.992-.466 1.623-.732 3.355-.791 5.153zm10.338 7.344v4.46c-1.279-.429-2.468-1.901-3.32-4.115 1.037-.192 2.151-.307 3.32-.345zm-2.772 3.998c-1.579-.532-3.02-1.414-4.223-2.588.727-.288 1.518-.542 2.36-.755.501 1.339 1.137 2.476 1.863 3.343zm-1.726-9.786h4.498v4.432c-1.286.042-2.544.183-3.748.42-.432-1.502-.689-3.169-.75-4.852zm4.498-5.988v4.432h-4.498c.061-1.684.318-3.35.75-4.851 1.21.237 2.468.378 3.748.419zm-6.995-2.766c1.204-1.174 2.645-2.056 4.223-2.587-.726.865-1.36 2.003-1.863 3.343-.841-.214-1.633-.468-2.36-.756zm3.675 1.065c.852-2.216 2.042-3.687 3.32-4.113v4.459c-1.17-.039-2.284-.155-3.32-.346zm-1.729 12.842c-1.012.264-1.985.598-2.898.993-1.412-1.775-2.235-3.892-2.391-6.146h4.498c.059 1.797.325 3.528.791 5.153zm16.943-5.158c-.157 2.258-.979 4.376-2.391 6.151-.914-.395-1.887-.729-2.898-.992.465-1.623.731-3.355.791-5.159zm-10.338-7.338v-4.459c1.279.426 2.468 1.898 3.32 4.113-1.036.191-2.15.307-3.32.346zm4.635-.655c-.502-1.34-1.137-2.478-1.864-3.343 1.578.531 3.02 1.413 4.223 2.587-.727.288-1.518.542-2.359.756zm-.138 6.442h-4.497v-4.432c1.283-.042 2.542-.183 3.747-.419.433 1.499.69 3.166.75 4.851zm1.342 0c-.059-1.797-.325-3.528-.791-5.152 1.013-.264 1.985-.598 2.899-.993 1.412 1.775 2.234 3.891 2.39 6.145zm-5.839 5.988v-4.437h4.497c-.06 1.689-.317 3.357-.75 4.856-1.205-.237-2.464-.378-3.747-.419zm6.995 2.766c-1.203 1.174-2.645 2.056-4.224 2.588.727-.867 1.362-2.004 1.864-3.343.843.214 1.634.467 2.36.755zm-3.676-1.065c-.851 2.214-2.04 3.685-3.319 4.115v-4.46c1.165.038 2.278.153 3.319.345zm-4.098-19.411c-6.891 0-12.499 5.608-12.499 12.5s5.608 12.5 12.499 12.5c6.893 0 12.501-5.608 12.501-12.5s-5.608-12.5-12.501-12.5z" transform="matrix(3.98715 0 0 3.98987 -1413.450967 -389.012546)"/></svg>