<svg clip-rule="evenodd" fill-rule="evenodd" stroke-linejoin="round" stroke-miterlimit="2" viewBox="0 0 100 80" xmlns="http://www.w3.org/2000/svg"><path d="m834.802 655.689c-.465-4.576-4.133-8.167-8.718-8.534-.63-.05-1.278-.102-1.936-.155-10.082-.806-20.214-.806-30.296 0-.658.053-1.306.105-1.936.155-4.585.367-8.253 3.958-8.718 8.534v.002c-.797 7.852-.797 15.766 0 23.618v.002c.465 4.576 4.133 8.167 8.718 8.534.63.05 1.278.102 1.936.155 10.082.806 20.214.806 30.296 0 .658-.053 1.306-.105 1.936-.155 4.585-.367 8.253-3.958 8.718-8.534 0-.001 0-.001 0-.002.797-7.852.797-15.766 0-23.618 0-.001 0-.001 0-.002zm-19.628 10.05c.652.345 1.06 1.023 1.06 1.761s-.408 1.416-1.06 1.761c-2.621 1.387-6.238 3.302-8.749 4.632-.618.327-1.361.306-1.96-.054-.599-.361-.965-1.009-.965-1.707 0-2.717 0-6.547 0-9.264 0-.698.366-1.346.965-1.707.599-.36 1.342-.381 1.96-.054 2.511 1.33 6.128 3.245 8.749 4.632z" fill="#b00" transform="matrix(1.89334 0 0 1.87603 -1481.728131 -1212.6582)"/></svg>